<?xml version="1.0" encoding="utf-8"?>
<!-- Generator: Adobe Illustrator 24.2.3, SVG Export Plug-In . SVG Version: 6.00 Build 0)  -->
<svg version="1.1" id="Layer_1" xmlns="http://www.w3.org/2000/svg" xmlns:xlink="http://www.w3.org/1999/xlink" x="0px" y="0px"
	 viewBox="0 0 1463.6 536" style="enable-background:new 0 0 1463.6 536;" xml:space="preserve">
<g>
	<g>
		<path d="M0,290.1c0,1.5,0,3,0,4.5c1.5,2.2,2.9,4.6,4.6,6.7c4.5,5.5,9.2,10.9,13.8,16.3c23,27,44.4,55.3,63,85.6
			c25.2,41,47.5,83.6,69.6,126.3c2.3,4.5,4.8,6.1,9.9,6.1c362.7-0.1,725.3-0.1,1088-0.1c1.7,0,3.5-0.1,5.2,0c2.5,0.2,4-0.9,4.8-3.2
			c1.3-3.8,2.5-7.6,4-11.3c10.2-25.9,19.7-52.1,31-77.5c21.1-47.5,51.9-88.5,88.8-124.7c20.9-20.4,43.1-39.4,64.7-59.1
			c5-4.6,10-9.2,15.5-14.3c-6.4,0-11.9-0.1-17.3,0c-54.4,1.6-108.9,3.2-163.3,4.9c-2.8,0.1-4.2-0.9-5.5-3.3
			c-5.9-10.3-11.9-20.5-17.8-30.8c-1.4-2.4-3.1-3.6-6-3.5c-12.7,0.4-25.5,0.7-38.2,1.1c-32.3,0.9-64.7,1.8-97,2.9
			c-2.7,0.1-3.8-0.9-4.9-3.3c-6.3-13.7-12.8-27.4-19.1-41.1c-1-2.3-2.4-3.1-4.9-3.1c-6.1,0-12.2-0.4-18.4-0.5
			c-37.5-0.8-74.9-1.6-112.4-2.2c-2.2,0-3.4-0.9-4.4-2.6c-4.2-7.1-8.5-14.1-12.6-21.2c-1.1-1.8-2.3-2.5-4.5-2.5
			c-8.2,0.2-16.5,0.2-24.7,0.4c-2.2,0.1-3.6-0.4-4.6-2.7c-5.5-11.9-11.2-23.7-16.8-35.6C874.3,68.2,858.2,34.1,842.1,0
			c-20,0-40,0-60,0c-1.1,0.1-2.2,0.4-3.3,0.4c-27.7,0.3-55.5,0.6-83.2,0.9c-5.3,0.1-6.5,1.4-5.6,6.6c5.1,28.5,10.1,57,15.2,85.5
			c1.6,9.1,3.2,18.3,4.9,27.4c-1.1-0.6-1.7-1.3-2.2-2.2c-23.3-38-46.5-76-69.7-114.1c-1.7-2.8-3.4-4-6.8-3.9
			c-47,1-93.9,1.9-140.9,2.9c-4.4,0.1-5.6,2-4.4,6.8c7.3,28.5,14.6,57.1,22,85.6c3.1,12.1,6.2,24.2,9.3,36.7c-1.7,0-3.1,0-4.4,0
			c-13.7,0-27.5,0.1-41.2,0c-2.3,0-3.6,0.6-4.8,2.6c-5.1,8.7-10.8,17.1-15.3,26.2c-3.5,7.1-7.7,9.2-15.8,9
			c-28.7-0.7-57.5-0.2-86.2-0.3c-2.5,0-3.8,0.8-5,2.9c-8.5,14.5-17.2,29-25.6,43.6c-1.5,2.5-3,3.6-6.1,3.5
			c-21.4-0.4-42.7-0.3-64.1-0.7c-4.3-0.1-6.6,1.3-7.9,5.5c-2.8,8.9-6.3,17.6-9.3,26.5c-0.9,2.5-2,3.4-4.8,3.4
			c-23.4,0-46.7,0.1-70.1,0.2c-19.9,0.1-39.7,0.3-59.6,0.3c-3.7,0-5.7,1.4-6.7,5c-2.1,7.5-4.7,14.8-6.7,22.2c-0.8,2.9-2,3.9-5.1,3.8
			c-22.7-0.9-45.4-1.5-68.2-2.5C5.5,283.7,1.9,285.2,0,290.1z"/>
	</g>
</g>
</svg>
